<?xml version="1.0" encoding="utf-8"?>
<!-- Generator: Adobe Illustrator 24.2.1, SVG Export Plug-In . SVG Version: 6.00 Build 0)  -->
<svg version="1.1" id="Layer_1" xmlns="http://www.w3.org/2000/svg" xmlns:xlink="http://www.w3.org/1999/xlink" x="0px" y="0px"
	 viewBox="0 0 351.13043 133.73914" style="enable-background:new 0 0 351.13043 133.73914;" xml:space="preserve">
<style type="text/css">
	.st0{fill:url(#SVGID_1_);stroke:#000000;stroke-miterlimit:10;}
	.st1{fill:url(#SVGID_2_);stroke:#000000;stroke-miterlimit:10;}
	.st2{fill:url(#SVGID_3_);stroke:#000000;stroke-miterlimit:10;}
	.st3{fill:url(#SVGID_4_);stroke:#000000;stroke-miterlimit:10;}
	.st4{fill:url(#SVGID_5_);stroke:#000000;stroke-miterlimit:10;}
	.st5{fill:url(#SVGID_6_);stroke:#000000;stroke-miterlimit:10;}
	.st6{fill:url(#SVGID_7_);stroke:#000000;stroke-miterlimit:10;}
	.st7{fill:url(#SVGID_8_);stroke:#000000;stroke-miterlimit:10;}
	.st8{fill:url(#SVGID_9_);stroke:#000000;stroke-miterlimit:10;}
	.st9{fill:url(#SVGID_10_);stroke:#000000;stroke-miterlimit:10;}
	.st10{fill:url(#SVGID_11_);stroke:#000000;stroke-miterlimit:10;}
	.st11{fill:url(#SVGID_12_);stroke:#000000;stroke-miterlimit:10;}
	.st12{fill:url(#SVGID_13_);stroke:#000000;stroke-miterlimit:10;}
	.st13{fill:url(#SVGID_14_);stroke:#000000;stroke-miterlimit:10;}
</style>
<g>
	<g>
		<linearGradient id="SVGID_1_" gradientUnits="userSpaceOnUse" x1="69.38553" y1="23.09337" x2="69.38553" y2="43.96293">
			<stop  offset="0" style="stop-color:#AA7D50"/>
			<stop  offset="0.46927" style="stop-color:#F7941D"/>
			<stop  offset="1" style="stop-color:#A97C50"/>
		</linearGradient>
		<path class="st0" d="M64.06131,46.15761c1.38037,0.19824,2.78955,0.35547,4.22998,0.47363
			c1.43896,0.11816,2.82959,0.17773,4.17041,0.17773c1.104,0,2.12988-0.06836,3.07617-0.20703
			c0.94678-0.1377,1.86377-0.35547,2.75098-0.65137c0.8877-0.29492,1.7749-0.68945,2.66211-1.18262
			c0.8877-0.49316,1.84326-1.09473,2.86914-1.80469l-3.3125,8.3418H54.95096c0.5918-0.32031,1.06494-0.66992,1.41992-1.0498
			c0.35498-0.37891,0.63037-0.86816,0.82813-1.46875c0.19678-0.59863,0.33447-1.33398,0.41406-2.20703
			c0.07861-0.87207,0.11816-1.97852,0.11816-3.32031V18.11708c0-1.34033-0.03955-2.44482-0.11816-3.3125
			c-0.07959-0.86719-0.21729-1.59766-0.41406-2.18896c-0.19775-0.5918-0.47314-1.07422-0.82813-1.44922
			c-0.35498-0.37451-0.82813-0.71924-1.41992-1.03564h11.89111c-0.5918,0.31641-1.06494,0.66113-1.41992,1.03564
			c-0.35498,0.375-0.63135,0.85742-0.82813,1.44922c-0.19824,0.59131-0.33594,1.32178-0.41455,2.18896
			c-0.0791,0.86768-0.11816,1.97217-0.11816,3.3125V46.15761z"/>
		<linearGradient id="SVGID_2_" gradientUnits="userSpaceOnUse" x1="102.09964" y1="23.09337" x2="102.09964" y2="43.96293">
			<stop  offset="0" style="stop-color:#AA7D50"/>
			<stop  offset="0.46927" style="stop-color:#F7941D"/>
			<stop  offset="1" style="stop-color:#A97C50"/>
		</linearGradient>
		<path class="st1" d="M96.71609,46.03944c1.4585,0.2373,2.75098,0.40527,3.875,0.50293
			c1.12402,0.09863,2.396,0.14844,3.81543,0.14844c2.72168,0,5.0083-0.27539,6.86279-0.82813
			c1.85303-0.55273,3.62793-1.45898,5.32422-2.72168l-2.89893,8.16406H87.60574c0.5918-0.31543,1.06494-0.66016,1.41992-1.03516
			s0.63037-0.8584,0.82813-1.4502c0.19678-0.59082,0.33447-1.33105,0.41406-2.21777c0.07861-0.8877,0.11816-2.00098,0.11816-3.34277
			V18.17665c0-1.34033-0.03955-2.45508-0.11816-3.34277c-0.07959-0.88721-0.22754-1.62695-0.44385-2.21826
			c-0.2168-0.5918-0.50244-1.06494-0.85742-1.41992s-0.80908-0.68945-1.36084-1.00586h20.82373
			c0.5918,0,1.0249-0.01904,1.30176-0.05908c0.27539-0.03857,0.63037-0.1377,1.06445-0.29541v7.27637
			c-0.5127-0.47363-1.00537-0.87744-1.479-1.21289c-0.47314-0.33447-0.99609-0.5918-1.56738-0.76904
			c-0.57227-0.17725-1.2334-0.30518-1.98193-0.38428c-0.74951-0.07861-1.61768-0.11865-2.60303-0.11865
			c-1.49902,0-2.72119,0.02979-3.66748,0.08887c-0.94678,0.05908-1.87402,0.16797-2.78076,0.3252v11.6543h8.34131
			c0.47314,0,0.84766-0.01953,1.12402-0.05908c0.27539-0.03906,0.61084-0.15723,1.00586-0.35498v6.62549
			c-0.51318-0.66992-1.11475-1.12402-1.8042-1.36035c-0.69092-0.23682-1.72607-0.35498-3.10596-0.35498h-5.56104V46.03944z"/>
		<linearGradient id="SVGID_3_" gradientUnits="userSpaceOnUse" x1="139.95975" y1="23.09337" x2="139.95975" y2="43.96293">
			<stop  offset="0" style="stop-color:#AA7D50"/>
			<stop  offset="0.46927" style="stop-color:#F7941D"/>
			<stop  offset="1" style="stop-color:#A97C50"/>
		</linearGradient>
		<path class="st2" d="M131.08621,35.80507l-3.54932,9.52441c-0.47363,1.2627-0.70996,2.32813-0.70996,3.19531
			c0,0.59082,0.16699,1.09375,0.50293,1.50781c0.33447,0.41406,0.91699,0.83887,1.74512,1.27246h-11.47705
			c0.70996-0.47363,1.32129-0.91699,1.83398-1.33105c0.51221-0.41406,0.97607-0.92676,1.39014-1.53809
			c0.41455-0.61133,0.81836-1.35059,1.21289-2.21875c0.39404-0.86719,0.84766-1.97168,1.36084-3.3125l11.00342-27.44971
			c0.47314-1.22168,0.70996-2.16846,0.70996-2.83936c0-0.55176-0.13867-1.00586-0.41406-1.36084
			c-0.27637-0.35498-0.76904-0.70996-1.479-1.06494h9.93848l13.1333,32.71484c0.47314,1.22266,0.92578,2.26758,1.36035,3.13477
			c0.43359,0.86816,0.87744,1.62695,1.33105,2.27832c0.45313,0.65039,0.94678,1.21191,1.479,1.68555s1.15381,0.9082,1.86328,1.30176
			H149.366c0.94678-0.55176,1.55762-0.97656,1.83398-1.27246c0.27539-0.2959,0.41406-0.69922,0.41406-1.21289
			c0-0.15625-0.01025-0.31445-0.0293-0.47266c-0.02051-0.15723-0.06934-0.35547-0.14795-0.5918
			c-0.07959-0.23633-0.18799-0.55176-0.32568-0.94629c-0.13867-0.39355-0.3252-0.8877-0.56201-1.47949l-3.66748-9.52441H131.08621z
			 M138.95438,15.45497l-6.38916,16.32764h12.71875L138.95438,15.45497z"/>
		<linearGradient id="SVGID_4_" gradientUnits="userSpaceOnUse" x1="185.03885" y1="23.09337" x2="185.03885" y2="43.96293">
			<stop  offset="0" style="stop-color:#AA7D50"/>
			<stop  offset="0.46927" style="stop-color:#F7941D"/>
			<stop  offset="1" style="stop-color:#A97C50"/>
		</linearGradient>
		<path class="st3" d="M200.43729,17.40761c-1.41504-1.30176-2.9873-2.24805-4.71582-2.83984
			c-1.72949-0.5918-3.83203-0.88721-6.30762-0.88721c-2.55469,0-4.90332,0.40479-7.04492,1.2124
			c-2.14258,0.80908-3.979,1.94336-5.51172,3.40185c-1.53271,1.45947-2.73145,3.20459-3.5957,5.23535
			c-0.86523,2.03174-1.29688,4.25049-1.29688,6.65527c0,2.4458,0.4707,4.73291,1.41357,6.86182
			c0.94189,2.12988,2.22754,3.99316,3.85693,5.59082c1.62988,1.59766,3.54395,2.86035,5.74316,3.78613
			c2.19824,0.92676,4.55469,1.39063,7.06738,1.39063c1.49219,0,3.04199-0.1084,4.65234-0.32617
			c1.61035-0.21582,2.90625-0.50195,3.8877-0.85742v-8.28223c0-1.33984-0.04004-2.44434-0.11816-3.3125
			c-0.0791-0.86719-0.2168-1.59766-0.41406-2.18945c-0.19824-0.59082-0.47363-1.07324-0.82813-1.44873
			c-0.35547-0.37451-0.82813-0.71924-1.41992-1.03516h9.46582c-0.2373,0.78906-0.35547,2.01123-0.35547,3.66748v13.25098
			c0,0.98633,0.01953,1.65723,0.05957,2.01172c0.03809,0.35547,0.1377,0.75,0.2959,1.18359
			c-0.43457,0.03906-0.76074,0.06934-0.97656,0.08887c-0.2168,0.01953-0.62109,0.1084-1.21289,0.26563
			c-1.41992,0.27637-2.70215,0.5127-3.84473,0.70996c-1.14453,0.19727-2.19922,0.35547-3.16504,0.47363
			c-0.9668,0.11816-1.91406,0.19629-2.83984,0.23633c-0.92676,0.03906-1.90332,0.05957-2.92871,0.05957
			c-3.43066,0-6.4873-0.35547-9.16895-1.06543c-2.68262-0.70996-5.12744-1.81348-7.33594-3.3125
			c-2.87939-1.97168-5.09766-4.41699-6.65527-7.33594c-1.55859-2.91797-2.33691-6.1123-2.33691-9.5835
			c0-3.58789,0.82764-6.87158,2.48193-9.84961c1.65479-2.97754,4.01807-5.4917,7.09082-7.54248
			c2.24512-1.49854,4.6875-2.6123,7.32764-3.34277c2.63867-0.729,5.59277-1.09424,8.8623-1.09424
			c0.86719,0,1.67383,0.02002,2.42285,0.05908c0.74805,0.03955,1.49609,0.09912,2.24512,0.17725
			c0.74902,0.07959,1.5459,0.18799,2.39258,0.32568c0.84766,0.13867,1.7832,0.30566,2.80762,0.50293V17.40761z"/>
		<linearGradient id="SVGID_5_" gradientUnits="userSpaceOnUse" x1="231.50711" y1="23.09337" x2="231.50711" y2="43.96293">
			<stop  offset="0" style="stop-color:#AA7D50"/>
			<stop  offset="0.46927" style="stop-color:#F7941D"/>
			<stop  offset="1" style="stop-color:#A97C50"/>
		</linearGradient>
		<path class="st4" d="M241.88943,46.9994c-2.95117,3.54102-7.06348,5.31152-12.33691,5.31152
			c-2.99121,0-5.6377-0.59473-7.93945-1.78027c-2.30176-1.1875-4.00488-2.8623-5.10645-5.02344
			c-0.31445-0.55176-0.55957-1.10352-0.7373-1.65625c-0.17773-0.55176-0.32422-1.17285-0.44336-1.86328
			c-0.11816-0.68945-0.19629-1.47949-0.23535-2.36621c-0.04004-0.8877-0.05957-1.96191-0.05957-3.22461V18.23573
			c0-1.34033-0.03906-2.44482-0.11816-3.31299c-0.0791-0.86719-0.2168-1.59717-0.41406-2.18896
			c-0.19727-0.59131-0.47266-1.07422-0.82813-1.44922c-0.35449-0.37451-0.82813-0.71924-1.41992-1.03516h11.83203
			c-0.54102,0.31592-0.99512,0.66064-1.36035,1.03516c-0.36719,0.375-0.64746,0.85791-0.83984,1.44922
			c-0.19336,0.5918-0.32813,1.32178-0.40527,2.18896c-0.07813,0.86816-0.11621,1.97266-0.11621,3.31299v18.16113
			c0,2.09082,0.14746,3.69727,0.44141,4.82129s0.87109,2.17969,1.73438,3.16504c0.90234,1.10449,2.04004,1.95215,3.41211,2.54395
			s2.8623,0.8877,4.4707,0.8877c1.8418,0,3.55762-0.38477,5.14551-1.1543c1.58789-0.76855,2.85254-1.82324,3.79297-3.16504
			c0.50977-0.66992,0.85254-1.36914,1.0293-2.09961c0.17676-0.72949,0.26563-1.68652,0.26563-2.86914V18.23573
			c0-1.34033-0.03906-2.44482-0.11719-3.31299c-0.07715-0.86719-0.22168-1.59717-0.43457-2.18896
			c-0.21191-0.59131-0.49121-1.07422-0.83887-1.44922c-0.34766-0.37451-0.79102-0.71924-1.33105-1.03516h11.83203
			c-0.55273,0.31592-1.0166,0.66064-1.39063,1.03516c-0.375,0.375-0.66113,0.85791-0.85742,1.44922
			c-0.19824,0.5918-0.33594,1.32178-0.41406,2.18896c-0.08008,0.86816-0.11914,1.97266-0.11914,3.31299v25.1416
			c0,1.3418,0.03906,2.44531,0.11914,3.3125c0.07813,0.86719,0.21582,1.5918,0.41406,2.17578
			c0.19629,0.58398,0.48242,1.06055,0.85742,1.43066c0.37402,0.37012,0.83789,0.71094,1.39063,1.02148h-8.87402V46.9994z"/>
		<linearGradient id="SVGID_6_" gradientUnits="userSpaceOnUse" x1="271.40945" y1="23.09337" x2="271.40945" y2="43.96293">
			<stop  offset="0" style="stop-color:#AA7D50"/>
			<stop  offset="0.46927" style="stop-color:#F7941D"/>
			<stop  offset="1" style="stop-color:#A97C50"/>
		</linearGradient>
		<path class="st5" d="M266.02615,46.03944c1.45898,0.2373,2.75098,0.40527,3.875,0.50293
			c1.12402,0.09863,2.39551,0.14844,3.81543,0.14844c2.72168,0,5.00879-0.27539,6.8623-0.82813s3.62793-1.45898,5.32422-2.72168
			l-2.89844,8.16406H256.9158c0.5918-0.31543,1.06445-0.66016,1.41992-1.03516c0.35449-0.375,0.62988-0.8584,0.82813-1.4502
			c0.19727-0.59082,0.33496-1.33105,0.41406-2.21777c0.0791-0.8877,0.11816-2.00098,0.11816-3.34277V18.17665
			c0-1.34033-0.03906-2.45508-0.11816-3.34277c-0.0791-0.88721-0.22754-1.62695-0.44336-2.21826
			c-0.21777-0.5918-0.50293-1.06494-0.8584-1.41992c-0.35449-0.35498-0.80859-0.68945-1.36035-1.00586h20.82422
			c0.59082,0,1.02441-0.01904,1.30078-0.05908c0.27539-0.03857,0.63086-0.1377,1.06543-0.29541v7.27637
			c-0.51367-0.47363-1.00586-0.87744-1.47949-1.21289c-0.47266-0.33447-0.99609-0.5918-1.56738-0.76904
			c-0.57227-0.17725-1.2334-0.30518-1.98145-0.38428c-0.75-0.07861-1.61816-0.11865-2.60352-0.11865
			c-1.49902,0-2.7207,0.02979-3.66797,0.08887c-0.94629,0.05908-1.87305,0.16797-2.78027,0.3252v11.6543h8.3418
			c0.47266,0,0.84766-0.01953,1.12402-0.05908c0.27539-0.03906,0.61035-0.15723,1.00488-0.35498v6.62549
			c-0.5127-0.66992-1.11426-1.12402-1.80371-1.36035c-0.69043-0.23682-1.72559-0.35498-3.10645-0.35498h-5.56055V46.03944z"/>
	</g>
</g>
<g>
	<g>
		<linearGradient id="SVGID_7_" gradientUnits="userSpaceOnUse" x1="290.4744" y1="23.09337" x2="290.4744" y2="43.96293">
			<stop  offset="0" style="stop-color:#AA7D50"/>
			<stop  offset="0.46927" style="stop-color:#FFFFFF"/>
			<stop  offset="1" style="stop-color:#A97C50"/>
		</linearGradient>
		<path class="st6" d="M290.67068,26.183c0.85352,0,1.68945,0.15674,2.50879,0.46924
			c0.81934,0.31299,1.5127,0.74805,2.08203,1.30566c0.56836,0.5459,1.01465,1.2085,1.33887,1.98779s0.48633,1.57861,0.48633,2.39746
			c0,0.87695-0.17285,1.69824-0.52051,2.46582c-0.34668,0.76855-0.81836,1.43652-1.41602,2.00586
			c-0.59766,0.56836-1.2998,1.01465-2.10742,1.33887s-1.67773,0.48633-2.61133,0.48633c-0.9209,0-1.78027-0.15918-2.57617-0.47754
			c-0.79688-0.31836-1.49023-0.75391-2.08203-1.30566s-1.05762-1.20313-1.39941-1.9541
			c-0.34082-0.75-0.51172-1.55762-0.51172-2.42285c0-0.89844,0.17285-1.73193,0.52051-2.5
			c0.34668-0.76807,0.82422-1.43359,1.43359-1.99658c0.6084-0.56299,1.32813-1.00391,2.1582-1.32227
			S289.70389,26.183,290.67068,26.183z M290.40604,27.47987c-0.61328,0-1.21191,0.11963-1.79688,0.3584
			s-1.07617,0.56299-1.47266,0.97266c-0.38672,0.39844-0.69043,0.896-0.91211,1.49316
			c-0.2207,0.59717-0.33203,1.22021-0.33203,1.86865c0,0.69385,0.125,1.37646,0.375,2.04834
			c0.25,0.6709,0.60742,1.2627,1.07324,1.77441c0.81738,0.89844,1.86816,1.34766,3.15137,1.34766
			c0.66895,0,1.28223-0.11328,1.83887-0.34082s1.0332-0.54883,1.43066-0.96387c0.39746-0.41602,0.70703-0.91309,0.92871-1.49316
			c0.2207-0.58105,0.33203-1.22363,0.33203-1.9292c0-0.68213-0.10547-1.32764-0.31543-1.93652
			c-0.20996-0.6084-0.51367-1.15186-0.91113-1.62988C292.92166,28.00331,291.79178,27.47987,290.40604,27.47987z"/>
		<linearGradient id="SVGID_8_" gradientUnits="userSpaceOnUse" x1="302.01883" y1="23.09337" x2="302.01883" y2="43.96293">
			<stop  offset="0" style="stop-color:#AA7D50"/>
			<stop  offset="0.46927" style="stop-color:#FFFFFF"/>
			<stop  offset="1" style="stop-color:#A97C50"/>
		</linearGradient>
		<path class="st7" d="M301.30252,36.04628c0,0.38672,0.01074,0.70605,0.03418,0.95605
			c0.02246,0.25,0.06152,0.46094,0.11914,0.63086c0.05664,0.1709,0.13672,0.31055,0.23926,0.41797
			c0.10156,0.1084,0.23828,0.20801,0.40918,0.29883h-3.42969c0.16992-0.09082,0.30664-0.19043,0.40918-0.29883
			c0.10254-0.10742,0.18164-0.24707,0.23926-0.41797c0.05664-0.16992,0.09668-0.38086,0.11914-0.63086
			s0.03418-0.56934,0.03418-0.95605v-7.25244c0-0.38672-0.01172-0.70508-0.03418-0.95557
			c-0.02246-0.25-0.0625-0.46094-0.11914-0.63135c-0.05762-0.1709-0.13672-0.31006-0.23926-0.41797
			s-0.23926-0.20752-0.40918-0.29883h6.00684c0.15918,0,0.28125-0.00537,0.36621-0.01709
			c0.08594-0.01123,0.19043-0.03955,0.31543-0.08545v2.08203c-0.14746-0.13672-0.29004-0.25-0.42578-0.34131
			c-0.13672-0.09082-0.28809-0.16211-0.45215-0.21338c-0.16504-0.05127-0.35352-0.08789-0.56348-0.11084
			c-0.21094-0.02246-0.45801-0.03418-0.74219-0.03418c-0.44434,0-0.7998,0.00879-1.06641,0.02588
			c-0.26758,0.01709-0.53809,0.04834-0.81055,0.09375v3.36182h2.40527c0.13672,0,0.24512-0.00586,0.32422-0.01709
			c0.08008-0.01123,0.17676-0.04541,0.29102-0.10254v1.91162c-0.13672-0.19336-0.30762-0.32422-0.5127-0.39307
			c-0.2041-0.06787-0.50586-0.10205-0.9043-0.10205h-1.60352V36.04628z"/>
	</g>
</g>
<g>
	<g>
		<linearGradient id="SVGID_9_" gradientUnits="userSpaceOnUse" x1="40.79764" y1="67.44119" x2="40.79764" y2="92.71848">
			<stop  offset="0" style="stop-color:#AA7D50"/>
			<stop  offset="0.46927" style="stop-color:#FBB040"/>
			<stop  offset="1" style="stop-color:#A97C50"/>
		</linearGradient>
		<path class="st8" d="M31.21073,104.75624c2.48486,0.31152,5.02295,0.55859,7.61621,0.74512
			c2.5918,0.18652,5.09521,0.2793,7.51025,0.2793c1.9873,0,3.83496-0.10742,5.53906-0.32617
			c1.70459-0.2168,3.35547-0.55859,4.95361-1.02441c1.59766-0.46484,3.1958-1.08496,4.79346-1.8623
			c1.59814-0.77539,3.31885-1.72266,5.1665-2.83984l-5.96533,13.12988H14.80545c1.06543-0.50391,1.91748-1.05371,2.55664-1.65137
			c0.63916-0.59668,1.13525-1.36816,1.4917-2.3125c0.35449-0.94238,0.60254-2.10059,0.74561-3.47363
			c0.1416-1.37402,0.21289-3.11523,0.21289-5.22656v-39.5752c0-2.10938-0.07129-3.84766-0.21289-5.21387
			c-0.14307-1.36523-0.39111-2.51465-0.74561-3.44531c-0.35645-0.93164-0.85254-1.69043-1.4917-2.28125
			c-0.63916-0.58984-1.49121-1.13184-2.55664-1.62988h21.41162c-1.06494,0.49805-1.91748,1.04004-2.55664,1.62988
			c-0.63916,0.59082-1.13672,1.34961-1.49121,2.28125c-0.35596,0.93066-0.604,2.08008-0.7456,3.44531
			c-0.14307,1.36621-0.21289,3.10449-0.21289,5.21387V104.75624z"/>
		<linearGradient id="SVGID_10_" gradientUnits="userSpaceOnUse" x1="102.60574" y1="67.44119" x2="102.60574" y2="92.71848">
			<stop  offset="0" style="stop-color:#AA7D50"/>
			<stop  offset="0.46927" style="stop-color:#FBB040"/>
			<stop  offset="1" style="stop-color:#A97C50"/>
		</linearGradient>
		<path class="st9" d="M103.53445,62.50331c4.04004,0,7.99854,0.64746,11.87695,1.94141
			c3.87793,1.2959,7.1626,3.09668,9.85645,5.40332c2.69287,2.25977,4.80713,5.00293,6.34229,8.22754
			c1.53516,3.22559,2.30273,6.53223,2.30273,9.92285c0,3.62598-0.82178,7.02637-2.46436,10.20508
			c-1.64355,3.17773-3.87793,5.94434-6.70557,8.29785c-2.82813,2.35449-6.1543,4.20215-9.97803,5.54395
			c-3.8252,1.3418-7.94531,2.0127-12.36133,2.0127c-4.36279,0-8.43018-0.66016-12.19971-1.97754
			c-3.77051-1.31738-7.05664-3.11816-9.85693-5.40234c-2.80078-2.2832-5.00879-4.97949-6.625-8.08691
			c-1.61572-3.10742-2.42334-6.44922-2.42334-10.02832c0-3.71875,0.82031-7.16797,2.46387-10.3457
			c1.64258-3.17871,3.90479-5.93262,6.78662-8.26367c2.88086-2.33008,6.28809-4.1543,10.22021-5.47266
			C94.70047,63.16249,98.95584,62.50331,103.53445,62.50331z M102.2825,67.8705c-2.90381,0-5.73877,0.49414-8.50732,1.4834
			c-2.76953,0.98828-5.09521,2.33008-6.97607,4.02539c-1.82764,1.64844-3.26709,3.70703-4.31494,6.17969
			c-1.04736,2.47168-1.57129,5.04883-1.57129,7.73242c0,2.87305,0.59082,5.69824,1.77344,8.47559
			c1.18311,2.77832,2.87695,5.22559,5.08105,7.34473c3.87061,3.71973,8.84326,5.5791,14.91895,5.5791
			c3.17139,0,6.07471-0.46973,8.70947-1.41211c2.6333-0.94141,4.8916-2.27148,6.77393-3.99023
			c1.88086-1.71875,3.34619-3.77832,4.39404-6.17969s1.57324-5.06055,1.57324-7.98047c0-2.8252-0.49756-5.49707-1.49219-8.01563
			c-0.99512-2.51855-2.43262-4.76758-4.31348-6.74512C114.1907,70.03651,108.84158,67.8705,102.2825,67.8705z"/>
		<linearGradient id="SVGID_11_" gradientUnits="userSpaceOnUse" x1="160.57327" y1="67.44119" x2="160.57327" y2="92.71848">
			<stop  offset="0" style="stop-color:#AA7D50"/>
			<stop  offset="0.46927" style="stop-color:#FBB040"/>
			<stop  offset="1" style="stop-color:#A97C50"/>
		</linearGradient>
		<path class="st10" d="M176.00516,72.67323c-1.83203-1.55371-3.90625-2.75488-6.2207-3.60254
			c-2.31641-0.84766-4.76758-1.27051-7.35254-1.27051c-3.39355,0-6.11377,0.63477-8.16016,1.90625
			c-2.04785,1.27148-3.07031,2.9668-3.07031,5.08496c0,0.94238,0.17432,1.77734,0.52539,2.50684
			c0.34961,0.73047,0.99609,1.44824,1.93896,2.1543c0.94189,0.70605,2.23438,1.44824,3.87793,2.22461
			c1.64258,0.77734,3.729,1.68359,6.26123,2.71875c1.77832,0.70703,3.2998,1.33105,4.56543,1.87207
			c1.26367,0.54199,2.38281,1.04785,3.35156,1.51855c0.9707,0.4707,1.81836,0.90723,2.54688,1.30664
			c0.72656,0.40039,1.41211,0.83594,2.05859,1.30566c3.07031,2.11914,4.60547,4.82715,4.60547,8.12207
			c0,1.83594-0.44336,3.62598-1.33203,5.36719c-0.88867,1.74316-2.19531,3.31934-3.91992,4.73242
			c-4.36133,3.67188-10.31445,5.50781-17.85449,5.50781c-2.74707,0-5.26514-0.17578-7.5542-0.5293
			c-2.29004-0.35254-4.78027-0.95313-7.47314-1.80078l-2.58545-9.25195c5.65576,3.95508,11.87646,5.93262,18.66309,5.93262
			c1.83057,0,3.52734-0.2002,5.08936-0.60059c1.5625-0.39941,2.91016-0.94141,4.04102-1.62402
			c1.13086-0.68164,2.01953-1.4834,2.66602-2.40137s0.96875-1.91797,0.96875-3.00098c0-0.98926-0.25586-1.95313-0.76758-2.89551
			c-0.51172-0.94141-1.19922-1.74219-2.06055-2.40137c-0.48438-0.37695-0.99609-0.72949-1.53516-1.05957
			c-0.53906-0.3291-1.21094-0.68164-2.01953-1.05957c-0.80664-0.37598-1.80469-0.81152-2.98877-1.30664
			c-1.18555-0.49414-2.63965-1.09473-4.36279-1.80078c-1.67041-0.6582-3.09814-1.24707-4.28223-1.76563
			c-1.18555-0.51758-2.23584-1-3.15088-1.44727c-0.9165-0.44727-1.71045-0.88281-2.3833-1.30664
			c-0.67432-0.42383-1.30664-0.89355-1.89893-1.41309c-1.40088-1.08203-2.4917-2.37695-3.27197-3.88379
			c-0.78125-1.50684-1.17139-3.08301-1.17139-4.73145c0-2.02441,0.49756-3.84961,1.49463-5.47363
			c0.99609-1.62402,2.42383-3.0127,4.28223-4.16699c1.85791-1.15332,4.09229-2.03613,6.70557-2.64844
			c2.61182-0.61133,5.53418-0.91797,8.76611-0.91797c2.26172,0,4.41602,0.12988,6.46289,0.38867s4.22852,0.6709,6.54492,1.23535
			V72.67323z"/>
		<linearGradient id="SVGID_12_" gradientUnits="userSpaceOnUse" x1="208.0784" y1="67.44119" x2="208.0784" y2="92.71848">
			<stop  offset="0" style="stop-color:#AA7D50"/>
			<stop  offset="0.46927" style="stop-color:#FBB040"/>
			<stop  offset="1" style="stop-color:#A97C50"/>
		</linearGradient>
		<path class="st11" d="M200.72635,106.57167c1.99219,0.2832,3.75684,0.4834,5.29199,0.60059
			c1.53516,0.11816,3.27148,0.17676,5.21094,0.17676c3.7168,0,6.83984-0.3291,9.37207-0.98926
			c2.53125-0.6582,4.95508-1.74121,7.27148-3.24805l-3.95898,9.74609h-35.62988c0.80762-0.37695,1.4541-0.78809,1.93945-1.23633
			c0.48438-0.44629,0.86035-1.02344,1.13086-1.73047c0.26855-0.70605,0.45703-1.58887,0.56543-2.64844
			c0.10742-1.05859,0.16113-2.38867,0.16113-3.99023V73.308c0-1.59961-0.05371-2.93066-0.16113-3.99023
			c-0.1084-1.05859-0.31055-1.94141-0.60645-2.64844c-0.2959-0.70605-0.68652-1.27051-1.1709-1.69434
			c-0.48535-0.42383-1.10449-0.82324-1.8584-1.20117h28.43945c0.80762,0,1.39941-0.02246,1.77734-0.07031
			c0.37598-0.0459,0.86035-0.16406,1.4541-0.35254v8.68652c-0.70117-0.56543-1.37402-1.04785-2.01953-1.44824
			c-0.64648-0.39941-1.36133-0.70605-2.1416-0.91797c-0.78125-0.21191-1.68359-0.36426-2.70605-0.45898
			c-1.02441-0.09375-2.20898-0.1416-3.55469-0.1416c-2.04785,0-3.7168,0.03516-5.00977,0.10645
			c-1.29297,0.07031-2.55859,0.2002-3.79688,0.38867v13.91211h11.3916c0.64648,0,1.15723-0.02246,1.53516-0.07031
			c0.37598-0.04688,0.83398-0.1875,1.37305-0.42383v7.91016c-0.7002-0.80078-1.52246-1.3418-2.46387-1.625
			c-0.94336-0.28223-2.35645-0.42383-4.24121-0.42383h-7.59473V106.57167z"/>
		<linearGradient id="SVGID_13_" gradientUnits="userSpaceOnUse" x1="257.92606" y1="67.44119" x2="257.92606" y2="92.71848">
			<stop  offset="0" style="stop-color:#AA7D50"/>
			<stop  offset="0.46927" style="stop-color:#FBB040"/>
			<stop  offset="1" style="stop-color:#A97C50"/>
		</linearGradient>
		<path class="st12" d="M245.16092,103.32362c0,1.60059,0.05176,2.91992,0.15723,3.95508
			c0.10645,1.03613,0.29102,1.90625,0.55469,2.6123c0.2627,0.70703,0.63086,1.28418,1.10547,1.73047
			c0.47461,0.44824,1.10742,0.85938,1.89844,1.23633h-16.1582c0.80762-0.37695,1.4541-0.78809,1.93945-1.23633
			c0.48438-0.44629,0.86035-1.02344,1.13086-1.73047c0.26855-0.70605,0.45703-1.57617,0.56543-2.6123
			c0.10742-1.03516,0.16113-2.35449,0.16113-3.95508V73.308c0-1.59961-0.05371-2.91797-0.16113-3.9541
			c-0.1084-1.03516-0.29688-1.90723-0.56543-2.61328c-0.27051-0.70605-0.64648-1.28223-1.13086-1.73047
			c-0.48535-0.44727-1.13184-0.8584-1.93945-1.23633h12.44238c0.37598,0,0.89844,0,1.57031,0s1.46289-0.02246,2.37598-0.07031
			c0.75098-0.0459,1.42285-0.07031,2.01367-0.07031c0.58984,0,1.12695,0,1.61035,0c2.79199,0,5.19434,0.23633,7.20801,0.70605
			c2.01367,0.4707,3.79883,1.2002,5.35645,2.18945c1.71777,1.12988,3.08789,2.55469,4.10742,4.27246
			c1.02051,1.71973,1.53027,3.47266,1.53027,5.26172c0,1.41211-0.33691,2.80176-1.00977,4.16699
			c-0.67383,1.36621-1.62988,2.6123-2.86816,3.74316c-1.23926,1.12988-2.70605,2.11816-4.40332,2.96582
			c-1.69629,0.84766-3.54199,1.4834-5.53418,1.90625c3.17773,3.76758,6.00488,6.98145,8.4834,9.64063
			c2.47656,2.66016,4.72656,4.93262,6.74609,6.81543c2.01953,1.88379,3.89063,3.4248,5.61523,4.62598
			c1.72266,1.2002,3.44629,2.17773,5.1709,2.93066c-1.29297,0.09375-2.35742,0.16406-3.19141,0.21191
			c-0.83594,0.0459-1.52246,0.09375-2.06055,0.14063c-0.53906,0.04688-0.99707,0.07129-1.37305,0.07129
			c-0.37793,0-0.78223,0-1.21191,0c-1.24023,0-2.34375-0.10645-3.3125-0.31836c-0.96973-0.21191-1.95313-0.58789-2.94922-1.12988
			c-0.99707-0.54102-2.03418-1.29395-3.11035-2.25977c-1.07813-0.96484-2.34277-2.2002-3.79785-3.70801
			c-2.53223-2.58887-5.07715-5.47266-7.63477-8.65137c-2.55859-3.17773-4.99609-6.48535-7.31152-9.92285
			c9.5332-1.41211,14.30078-4.9668,14.30078-10.66406c0-2.44727-0.95703-4.43652-2.86816-5.96777
			c-1.91309-1.5293-4.40332-2.29492-7.47363-2.29492c-0.91699,0-1.81836,0.03516-2.70703,0.10645
			c-0.88867,0.07031-1.97949,0.22363-3.27148,0.45898V103.32362z"/>
		<linearGradient id="SVGID_14_" gradientUnits="userSpaceOnUse" x1="310.44461" y1="67.44119" x2="310.44461" y2="92.71848">
			<stop  offset="0" style="stop-color:#AA7D50"/>
			<stop  offset="0.46927" style="stop-color:#FBB040"/>
			<stop  offset="1" style="stop-color:#A97C50"/>
		</linearGradient>
		<path class="st13" d="M330.7908,59.8744c-2.41504-2.04883-5.14941-3.63184-8.20215-4.74902
			c-3.05469-1.11719-6.28516-1.67676-9.69434-1.67676c-4.47363,0-8.06055,0.83887-10.75879,2.51465
			c-2.69922,1.67578-4.04785,3.91113-4.04785,6.7041c0,1.24316,0.22949,2.34375,0.69238,3.30566
			c0.46094,0.96289,1.31348,1.90918,2.55664,2.83984c1.24219,0.93164,2.94629,1.90918,5.11328,2.93359
			c2.16504,1.02441,4.91699,2.2207,8.25586,3.58496c2.34375,0.93164,4.34863,1.75488,6.01855,2.46777
			c1.66797,0.71387,3.14258,1.38184,4.4209,2.00195c1.27832,0.62109,2.39648,1.19629,3.35547,1.72266
			c0.95898,0.52832,1.86426,1.10254,2.71582,1.72266c4.04883,2.79297,6.07227,6.36426,6.07227,10.70801
			c0,2.42188-0.58594,4.78125-1.75781,7.07715c-1.17188,2.29785-2.89453,4.37695-5.16602,6.23926
			c-5.75293,4.8418-13.60059,7.2627-23.54199,7.2627c-3.62207,0-6.94238-0.23242-9.95996-0.69824
			c-3.01953-0.46582-6.30371-1.25684-9.85352-2.375l-3.40918-12.19824c7.45703,5.21484,15.65918,7.82227,24.60742,7.82227
			c2.41309,0,4.65039-0.26367,6.71094-0.79199c2.05859-0.52637,3.83496-1.24023,5.32617-2.1416
			c1.49121-0.89844,2.66309-1.95508,3.51563-3.16602c0.85156-1.20996,1.27832-2.52832,1.27832-3.95703
			c0-1.30371-0.33789-2.5752-1.0127-3.81738c-0.67578-1.24121-1.58105-2.2959-2.71582-3.16602
			c-0.63965-0.49609-1.31543-0.96191-2.02441-1.39746c-0.70996-0.43359-1.59766-0.89844-2.66309-1.39648
			c-1.06543-0.49609-2.37988-1.07031-3.94141-1.72266c-1.5625-0.65137-3.48047-1.44336-5.75195-2.37402
			c-2.20215-0.86914-4.08496-1.64453-5.64551-2.32813c-1.56348-0.68262-2.94824-1.31836-4.15527-1.90918
			c-1.20801-0.58887-2.25488-1.16406-3.14258-1.72266c-0.88867-0.55859-1.72266-1.17871-2.50293-1.8623
			c-1.84766-1.42773-3.28516-3.13379-4.31445-5.12109c-1.03027-1.98633-1.54395-4.06543-1.54395-6.23926
			c0-2.66797,0.65527-5.0752,1.9707-7.2168c1.3125-2.1416,3.19531-3.97168,5.64551-5.49316
			c2.4502-1.52051,5.39648-2.68457,8.8418-3.49219c3.44336-0.80566,7.29688-1.21094,11.55762-1.21094
			c2.98242,0,5.82227,0.17188,8.52246,0.5127c2.69727,0.3418,5.57422,0.88477,8.62793,1.62891V59.8744z"/>
	</g>
</g>
</svg>
